<svg width="587" height="747" fill="none" xmlns="http://www.w3.org/2000/svg"><path d="M463.402 124.736v15.048h-67.27c0-7.548 1.241-13.949 3.722-19.204 2.576-5.35 5.772-9.936 9.589-13.758 3.817-3.917 7.968-7.31 12.452-10.176a342.12 342.12 0 0 0 12.452-8.598c3.817-2.771 6.966-5.638 9.447-8.6 2.576-2.961 3.864-6.496 3.864-10.605 0-4.681-1.574-8.455-4.723-11.321-3.053-2.962-7.443-4.443-13.168-4.443-3.816 0-6.965.716-9.446 2.15-2.386 1.433-4.342 3.01-5.868 4.729a22.902 22.902 0 0 0-4.008 6.736l-12.881-5.733c1.335-4.3 3.387-8.121 6.154-11.465 2.386-2.866 5.63-5.494 9.733-7.882 4.198-2.389 9.637-3.583 16.316-3.583 4.962 0 9.494.812 13.597 2.436 4.199 1.529 7.777 3.726 10.735 6.593a29.16 29.16 0 0 1 6.87 9.745c1.622 3.726 2.433 7.739 2.433 12.038 0 4.873-.954 9.125-2.862 12.755-1.813 3.631-4.199 6.927-7.157 9.89-2.958 2.865-6.297 5.54-10.019 8.025a277.551 277.551 0 0 0-11.02 7.452 102.134 102.134 0 0 0-10.019 8.026 32.746 32.746 0 0 0-7.586 9.745h48.663zm24.032 16.481c-2.481 0-4.676-.907-6.584-2.723-1.813-1.911-2.719-4.108-2.719-6.592s.906-4.634 2.719-6.449c1.908-1.911 4.103-2.867 6.584-2.867s4.628.956 6.441 2.867c1.908 1.815 2.862 3.965 2.862 6.449s-.954 4.681-2.862 6.592c-1.813 1.816-3.96 2.723-6.441 2.723zm81.782-51.593c0-6.306-.716-11.752-2.147-16.338-1.431-4.681-3.34-8.55-5.725-11.608-2.29-3.153-5.009-5.494-8.158-7.023a21.453 21.453 0 0 0-9.733-2.293c-3.435 0-6.727.765-9.876 2.293-3.053 1.529-5.773 3.87-8.158 7.023-2.29 3.057-4.151 6.927-5.582 11.608-1.431 4.586-2.147 10.032-2.147 16.338 0 6.306.716 11.8 2.147 16.481 1.431 4.586 3.292 8.456 5.582 11.609 2.385 3.057 5.105 5.35 8.158 6.879 3.149 1.528 6.441 2.293 9.876 2.293 3.435 0 6.679-.765 9.733-2.293 3.149-1.529 5.868-3.822 8.158-6.879 2.385-3.153 4.294-7.023 5.725-11.609 1.431-4.681 2.147-10.175 2.147-16.481zm-25.763 51.593c-5.725 0-11.116-1.146-16.173-3.439-5.058-2.293-9.447-5.637-13.168-10.032-3.721-4.395-6.679-9.793-8.874-16.195-2.195-6.401-3.292-13.71-3.292-21.927 0-8.217 1.097-15.526 3.292-21.927 2.195-6.402 5.153-11.8 8.874-16.195 3.721-4.395 8.11-7.739 13.168-10.032 5.057-2.293 10.448-3.44 16.173-3.44 5.725 0 11.116 1.147 16.173 3.44 5.058 2.293 9.447 5.637 13.168 10.032 3.722 4.395 6.68 9.793 8.874 16.195 2.195 6.401 3.292 13.71 3.292 21.927 0 8.217-1.097 15.526-3.292 21.927-2.194 6.402-5.152 11.8-8.874 16.195-3.721 4.395-8.11 7.739-13.168 10.032-5.057 2.293-10.448 3.439-16.173 3.439z" fill="#8E9096" fill-opacity=".17"/><path d="M417.827 39.699a25.68 25.68 0 0 0-1.394.5l-12.45 23.62.916.406L417.827 39.7zm4.022 14.772c-.535.226-1.044.478-1.528.758h-.002l9.065-17.197a54.126 54.126 0 0 1 1.128.005l-8.663 16.434zm12.364-1.052a23.893 23.893 0 0 0-1.053-.149l7.276-13.803c.327.095.652.194.973.298l-7.196 13.654zm-34.846 86.365l22.851-43.35c.586-.389 1.166-.775 1.741-1.16l-23.461 44.51h-1.131zm12.939 0h-1.13l7.932-15.048h1.13l-7.932 15.048zm11.809 0h-1.13l7.932-15.048h1.13l-7.932 15.048zm11.81 0h-1.13l7.931-15.048h1.131l-7.932 15.048zm11.808 0h-1.131l7.932-15.048h1.131l-7.932 15.048zm11.809 0h-1.13l4.99-9.467v2.145l-3.86 7.322zm3.697-74.224l-16.731 31.741c-.596.442-1.202.878-1.82 1.309l18.328-34.77c.09.568.164 1.141.223 1.72zm-5.413-14.278c.22.304.434.612.643.925l-11.747 22.284c.423-1.18.702-2.426.839-3.734l10.265-19.475zm-7.845-7.521c.281.185.558.374.831.568l-7.264 13.782c-.197-.2-.402-.397-.613-.59a23.9 23.9 0 0 0-.138-.13l7.184-13.63zm-8.152 37.869l-15.962 30.284c.649-.538 1.305-1.069 1.969-1.592l16.899-32.06c-.292.405-.606.8-.941 1.187a41.788 41.788 0 0 1-1.965 2.18zm40.319 57.929l8.604-16.322c.305.128.604.276.896.443l-8.649 16.409a9.668 9.668 0 0 1-.851-.53zm20.781-37.279a69.745 69.745 0 0 1-.255-1.663l32.549-61.749c.417-.087.836-.168 1.258-.242l-33.552 63.654zm4.364 14.485a54.43 54.43 0 0 1-.512-1.172l11.068-20.998c.042.629.092 1.249.15 1.86l-10.706 20.31zm6.215 10.25c-.229-.283-.454-.57-.677-.861l8.447-16.024c.164.402.333.797.505 1.186l-8.275 15.699zm7.898 7.419a33.268 33.268 0 0 1-.82-.59l7.13-13.525c.247.247.497.487.751.72l-7.061 13.395zm9.325 4.713a41.402 41.402 0 0 1-.951-.339l6.846-12.988c.324.104.65.201.977.29l-6.872 13.037zm10.742 2.024a39.709 39.709 0 0 1-1.095-.066l7.758-14.718c.438-.096.872-.206 1.304-.329l-7.967 15.113zm12.52-1.351c-.433.119-.869.231-1.307.336l31.721-60.18c.07.588.134 1.182.192 1.78l-30.606 58.064zm17.276-10.371a38.938 38.938 0 0 1-2.317 2.251l14.781-28.042a59.922 59.922 0 0 1-.815 3.69l-11.649 22.101zm9.328-64.646c.162.408.322.82.478 1.238l-11.866 22.511a74.957 74.957 0 0 0-.054-2.042l11.442-21.707zm-6.003-11.015c.22.3.437.603.65.911l-8.797 16.69c-.15-.43-.305-.85-.464-1.264l8.611-16.337zm-7.643-7.905c.268.207.533.419.796.634l-7.346 13.938a25.84 25.84 0 0 0-.7-.818l7.25-13.754zm-9.088-5.161c.311.123.62.25.929.382l-6.841 12.98c-.31-.133-.621-.257-.934-.374l6.846-12.988zm-10.305-2.489c.356.036.712.076 1.066.121l-7.443 14.122c-.407.04-.811.093-1.213.156l7.59-14.4zm-26.145 6.576l-19.018 36.08c.103-.96.224-1.903.362-2.832l16.791-31.855c.608-.485 1.23-.95 1.865-1.393z" fill="#8E9096" fill-opacity=".55"/><path fill-rule="evenodd" clip-rule="evenodd" d="M464.902 123.236v18.048h-70.27v-1.5c0-7.706 1.266-14.339 3.865-19.844l.005-.011c2.641-5.484 5.929-10.21 9.873-14.16 3.89-3.992 8.125-7.453 12.703-10.38a343.048 343.048 0 0 0 12.388-8.555c3.738-2.714 6.791-5.499 9.178-8.349l.009-.01.009-.01c2.327-2.676 3.496-5.857 3.496-9.622 0-4.306-1.429-7.66-4.233-10.212l-.017-.016-.017-.017c-2.688-2.607-6.65-4.02-12.124-4.02-3.632 0-6.497.682-8.685 1.943-2.271 1.366-4.095 2.844-5.499 4.423a21.427 21.427 0 0 0-3.738 6.287l-.566 1.476-15.543-6.918.395-1.273c1.392-4.48 3.535-8.476 6.431-11.976l.003-.004c2.524-3.032 5.916-5.765 10.131-8.219l.007-.004.006-.003c4.495-2.557 10.214-3.78 17.058-3.78 5.12 0 9.836.838 14.13 2.535 4.367 1.593 8.121 3.892 11.237 6.909a30.652 30.652 0 0 1 7.21 10.232c1.709 3.926 2.558 8.144 2.558 12.637 0 5.065-.991 9.56-3.027 13.44-1.887 3.773-4.366 7.196-7.43 10.264l-.009.009-.009.008c-3.028 2.935-6.44 5.666-10.23 8.196l-.011.008-.011.007a277.915 277.915 0 0 0-10.962 7.412l-.006.005a100.777 100.777 0 0 0-9.873 7.908l-.009.008-.009.009a31.237 31.237 0 0 0-6.014 7.119h47.6zm-49.346 0c-.284.491-.556.991-.817 1.5h48.663v15.048h-67.27c0-.505.006-1.005.017-1.5.155-6.899 1.39-12.801 3.705-17.704 2.576-5.35 5.772-9.936 9.589-13.758 3.817-3.917 7.968-7.31 12.452-10.176a342.12 342.12 0 0 0 12.452-8.598c3.817-2.771 6.966-5.638 9.447-8.6 2.576-2.961 3.864-6.496 3.864-10.605 0-4.681-1.574-8.455-4.723-11.321-3.053-2.962-7.443-4.443-13.168-4.443-3.816 0-6.965.716-9.446 2.15-2.386 1.433-4.342 3.01-5.868 4.729a22.846 22.846 0 0 0-4.008 6.736l-12.881-5.733c1.335-4.3 3.387-8.121 6.154-11.465 2.386-2.866 5.63-5.494 9.733-7.882 4.198-2.389 9.637-3.583 16.316-3.583 4.962 0 9.494.812 13.597 2.436 4.199 1.529 7.777 3.726 10.735 6.593a29.16 29.16 0 0 1 6.87 9.745c1.622 3.726 2.433 7.739 2.433 12.038 0 4.873-.954 9.125-2.862 12.755-1.813 3.631-4.199 6.927-7.157 9.89-2.958 2.865-6.297 5.54-10.019 8.025a277.551 277.551 0 0 0-11.02 7.452 102.134 102.134 0 0 0-10.019 8.026 32.731 32.731 0 0 0-6.769 8.245zm64.232 16.319l-.026-.028c-2.06-2.171-3.131-4.732-3.131-7.625 0-2.896 1.074-5.423 3.158-7.509 2.162-2.165 4.729-3.307 7.645-3.307 2.907 0 5.431 1.136 7.502 3.306 2.168 2.075 3.301 4.6 3.301 7.51 0 2.918-1.139 5.487-3.301 7.652-2.084 2.087-4.608 3.163-7.502 3.163-2.891 0-5.45-1.073-7.618-3.136l-.028-.026zm14.087-14.102c-1.813-1.911-3.96-2.867-6.441-2.867s-4.676.956-6.584 2.867c-1.813 1.815-2.719 3.965-2.719 6.449s.906 4.681 2.719 6.592c1.908 1.816 4.103 2.723 6.584 2.723s4.628-.907 6.441-2.723c1.908-1.911 2.862-4.108 2.862-6.592s-.954-4.634-2.862-6.449zm71.762-51.72l-.002-.008c-1.391-4.55-3.226-8.244-5.474-11.125l-.015-.02-.016-.02c-2.161-2.977-4.697-5.146-7.599-6.555l-.009-.004-.008-.005a19.95 19.95 0 0 0-9.061-2.134c-3.201 0-6.266.71-9.212 2.139-2.813 1.41-5.357 3.585-7.623 6.578-2.161 2.885-3.953 6.587-5.347 11.146l-.002.008c-1.375 4.404-2.079 9.692-2.079 15.891 0 6.196.704 11.534 2.08 16.038 1.39 4.453 3.18 8.159 5.347 11.149 2.261 2.893 4.805 5.024 7.624 6.436 2.946 1.429 6.011 2.139 9.212 2.139 3.203 0 6.218-.711 9.061-2.134l.008-.005.009-.004c2.914-1.415 5.452-3.545 7.612-6.429l.005-.005c2.26-2.988 4.097-6.693 5.488-11.146 1.376-4.504 2.08-9.843 2.08-16.039 0-6.199-.704-11.487-2.079-15.891zm-40.218 43.981c-2.29-3.153-4.151-7.023-5.582-11.609-1.431-4.681-2.147-10.175-2.147-16.481 0-6.306.716-11.752 2.147-16.338 1.431-4.681 3.292-8.55 5.582-11.608 2.385-3.153 5.105-5.494 8.158-7.023 3.149-1.528 6.441-2.293 9.876-2.293 3.435 0 6.679.765 9.733 2.293 3.149 1.529 5.868 3.87 8.158 7.023 2.385 3.057 4.294 6.927 5.725 11.608 1.431 4.586 2.147 10.032 2.147 16.338 0 6.306-.716 11.8-2.147 16.481-1.431 4.586-3.34 8.456-5.725 11.609-2.29 3.057-5.009 5.35-8.158 6.879a21.462 21.462 0 0 1-9.733 2.293c-3.435 0-6.727-.765-9.876-2.293-3.053-1.529-5.773-3.822-8.158-6.879zm18.034 25.003c-5.932 0-11.535-1.189-16.793-3.573-5.267-2.388-9.833-5.871-13.693-10.429-3.861-4.56-6.903-10.13-9.148-16.677-2.258-6.588-3.373-14.066-3.373-22.414s1.115-15.826 3.373-22.414c2.245-6.547 5.287-12.117 9.148-16.677 3.86-4.558 8.426-8.04 13.693-10.429 5.258-2.384 10.861-3.573 16.793-3.573 5.932 0 11.535 1.19 16.793 3.573 5.267 2.388 9.834 5.871 13.693 10.429 3.861 4.56 6.903 10.13 9.148 16.677 2.258 6.588 3.373 14.066 3.373 22.414s-1.115 15.826-3.373 22.414c-2.245 6.547-5.287 12.117-9.148 16.677-3.859 4.558-8.426 8.041-13.693 10.429-5.258 2.384-10.861 3.573-16.793 3.573zm-16.173-4.939c5.057 2.293 10.448 3.439 16.173 3.439 5.725 0 11.116-1.146 16.173-3.439 5.058-2.293 9.447-5.637 13.168-10.032 3.722-4.395 6.68-9.793 8.874-16.195 2.195-6.401 3.292-13.71 3.292-21.927 0-8.217-1.097-15.526-3.292-21.927-2.194-6.402-5.152-11.8-8.874-16.195-3.721-4.395-8.11-7.739-13.168-10.032-5.057-2.293-10.448-3.44-16.173-3.44-5.725 0-11.116 1.147-16.173 3.44-5.058 2.293-9.447 5.637-13.168 10.032-3.721 4.395-6.679 9.793-8.874 16.195-2.195 6.401-3.292 13.71-3.292 21.927 0 8.217 1.097 15.526 3.292 21.927 2.195 6.402 5.153 11.8 8.874 16.195 3.721 4.395 8.11 7.739 13.168 10.032z" fill="#8E9096"/><mask id="mask0" maskUnits="userSpaceOnUse" x="289" y="289" width="180" height="155"><path fill="#C4C4C4" d="M289.299 289.208h178.758v154.769H289.299z"/></mask><g mask="url(#mask0)"><mask id="mask1" maskUnits="userSpaceOnUse" x="115" y="142" width="348" height="407"><path fill-rule="evenodd" clip-rule="evenodd" d="M176.771 548.67h66.691V406.497c24.898 19.954 52.819 29.931 83.763 29.931 38.058 0 70.248-13.896 96.568-41.689 25.965-28.15 38.948-63.248 38.948-105.294 0-42.402-12.983-77.322-38.948-104.758-25.964-28.15-58.154-42.225-96.568-42.225-29.121 0-77.614 8.634-115.789 52.985-20.836-21.348-57.894-33.679-96.409-24.313v59.346c29.23-9.422 61.708 6.853 61.708 41.975 0 .602.012 1.188.036 1.76V548.67zm141.918-339.397c20.985 0 38.592 7.661 52.819 22.983 14.583 15.678 21.874 34.741 21.874 57.189 0 22.449-7.291 41.512-21.874 57.19-14.227 15.322-31.834 22.983-52.819 22.983-20.986 0-38.592-7.661-52.819-22.983-26.489-28.526-26.489-85.853 0-114.379 14.227-15.322 31.833-22.983 52.819-22.983z" fill="#C4C4C4"/></mask><g mask="url(#mask1)" stroke="#8E9096" stroke-opacity=".4" stroke-width=".8"><path d="M330.689 311.958h16.406v16.406h-16.406zm0 33.839h16.406v16.406h-16.406zm0-16.919h16.406v16.406h-16.406zm0 33.838h16.406v16.406h-16.406zm67.677-50.758h16.406v16.406h-16.406zm0 33.839h16.406v16.406h-16.406zm0-16.919h16.406v16.406h-16.406zm0 33.838h16.406v16.406h-16.406zm-33.838-50.758h16.406v16.406h-16.406zm0 33.839h16.406v16.406h-16.406zm0-16.919h16.406v16.406h-16.406zm0 33.838h16.406v16.406h-16.406zm-67.276-50.758h16.406v16.406h-16.406zm134.953 0h16.406v16.406h-16.406zm-134.953 33.839h16.406v16.406h-16.406zm134.953 0h16.406v16.406h-16.406zm-134.953-16.919h16.406v16.406h-16.406zm134.953 0h16.406v16.406h-16.406zm-134.953 33.838h16.406v16.406h-16.406zm134.953 0h16.406v16.406h-16.406zm-84.597-50.758h16.406v16.406h-16.406zm0 33.839h16.406v16.406h-16.406zm0-16.919h16.406v16.406h-16.406zm0 33.838h16.406v16.406h-16.406zm-67.275-50.758h16.406v16.406h-16.406zm134.953 0h16.406v16.406h-16.406zm-134.953 33.839h16.406v16.406h-16.406zm134.953 0h16.406v16.406h-16.406zm-134.953-16.919h16.406v16.406h-16.406zm134.953 0h16.406v16.406h-16.406zm-134.953 33.838h16.406v16.406h-16.406zm134.953 0h16.406v16.406h-16.406zm-33.839-50.758h16.406v16.406h-16.406zm0 33.839h16.406v16.406h-16.406zm0-16.919h16.406v16.406h-16.406zm0 33.838h16.406v16.406h-16.406zm-67.276-50.758h16.406v16.406h-16.406zm134.954 0h16.406v16.406h-16.406zm-134.954 33.839h16.406v16.406h-16.406zm134.954 0h16.406v16.406h-16.406zm-134.954-16.919h16.406v16.406h-16.406zm134.954 0h16.406v16.406h-16.406zm-134.954 33.838h16.406v16.406h-16.406zm134.954 0h16.406v16.406h-16.406zm-118.436 16.719h16.406v16.406h-16.406zm0-101.115h16.406v16.406h-16.406zm0 134.953h16.406v16.406h-16.406zm0-16.919h16.406v16.406h-16.406zm0-101.114h16.406v16.406h-16.406zm0 134.953h16.406v16.406h-16.406zm67.677-50.758h16.406v16.406h-16.406zm0-101.115h16.406v16.406h-16.406zm0 134.953h16.406v16.406h-16.406zm0-16.919h16.406v16.406h-16.406zm0-101.114h16.406v16.406h-16.406zm0 134.953h16.406v16.406h-16.406zm-33.838-50.758h16.406v16.406h-16.406zm0-101.115h16.406v16.406h-16.406zm0 134.953h16.406v16.406h-16.406zm0-16.919h16.406v16.406h-16.406zm0-101.114h16.406v16.406h-16.406zm0 134.953h16.406v16.406h-16.406zm-67.276-50.758h16.406v16.406h-16.406zm134.953 0h16.406v16.406h-16.406zM297.252 278.32h16.406v16.406h-16.406zm0 134.953h16.406v16.406h-16.406zM432.205 278.32h16.406v16.406h-16.406zm0 134.953h16.406v16.406h-16.406zm-134.953-16.919h16.406v16.406h-16.406zm134.953 0h16.406v16.406h-16.406zM297.252 295.24h16.406v16.406h-16.406zm0 134.953h16.406v16.406h-16.406zM432.205 295.24h16.406v16.406h-16.406zm0 134.953h16.406v16.406h-16.406zm-84.597-50.758h16.406v16.406h-16.406zm0-101.115h16.406v16.406h-16.406zm0 134.953h16.406v16.406h-16.406zm0-16.919h16.406v16.406h-16.406zm0-101.114h16.406v16.406h-16.406zm0 134.953h16.406v16.406h-16.406zm-67.275-50.758h16.406v16.406h-16.406zm134.953 0h16.406v16.406h-16.406zM280.333 278.32h16.406v16.406h-16.406zm0 134.953h16.406v16.406h-16.406zM415.286 278.32h16.406v16.406h-16.406zm0 134.953h16.406v16.406h-16.406zm-134.953-16.919h16.406v16.406h-16.406zm134.953 0h16.406v16.406h-16.406zM280.333 295.24h16.406v16.406h-16.406zm0 134.953h16.406v16.406h-16.406zM415.286 295.24h16.406v16.406h-16.406zm0 134.953h16.406v16.406h-16.406zm-33.839-50.758h16.406v16.406h-16.406zm0-101.115h16.406v16.406h-16.406zm0 134.953h16.406v16.406h-16.406zm0-16.919h16.406v16.406h-16.406zm0-101.114h16.406v16.406h-16.406zm0 134.953h16.406v16.406h-16.406zm-67.276-50.758h16.406v16.406h-16.406zm134.954 0h16.406v16.406h-16.406zM314.171 278.32h16.406v16.406h-16.406zm0 134.953h16.406v16.406h-16.406zM449.125 278.32h16.406v16.406h-16.406zm0 134.953h16.406v16.406h-16.406zm-134.954-16.919h16.406v16.406h-16.406zm134.954 0h16.406v16.406h-16.406zM314.171 295.24h16.406v16.406h-16.406zm0 134.953h16.406v16.406h-16.406zM449.125 295.24h16.406v16.406h-16.406zm0 134.953h16.406v16.406h-16.406z"/></g><mask id="path-116-outside-1" maskUnits="userSpaceOnUse" x="113.027" y="140.462" width="352" height="411" fill="#000"><path fill="#fff" d="M113.027 140.462h352v411h-352z"/><path fill-rule="evenodd" clip-rule="evenodd" d="M176.771 548.67h66.691V406.497c24.898 19.954 52.819 29.931 83.763 29.931 38.058 0 70.248-13.896 96.568-41.689 25.965-28.15 38.948-63.248 38.948-105.294 0-42.402-12.983-77.322-38.948-104.758-25.964-28.15-58.154-42.225-96.568-42.225-29.121 0-77.614 8.634-115.789 52.985-20.836-21.348-57.894-33.679-96.409-24.313v59.346c29.23-9.422 61.708 6.853 61.708 41.975 0 .602.012 1.188.036 1.76V548.67zm141.918-339.397c20.985 0 38.592 7.661 52.819 22.983 14.583 15.678 21.874 34.741 21.874 57.189 0 22.449-7.291 41.512-21.874 57.19-14.227 15.322-31.834 22.983-52.819 22.983-20.986 0-38.592-7.661-52.819-22.983-26.489-28.526-26.489-85.853 0-114.379 14.227-15.322 31.833-22.983 52.819-22.983z"/></mask><path d="M243.462 548.67v1.8h1.8v-1.8h-1.8zm-66.691 0h-1.8v1.8h1.8v-1.8zm66.691-142.173l1.125-1.404-2.925-2.345v3.749h1.8zm180.331-11.758l1.307 1.237.009-.008.008-.009-1.324-1.22zm0-210.052l-1.323 1.22.008.008.008.009 1.307-1.237zm-212.357 10.76l-1.288 1.258 1.371 1.405 1.281-1.488-1.364-1.175zm-96.409-24.313l-.425-1.749-1.375.334v1.415h1.8zm0 59.346h-1.8v2.472l2.353-.758-.553-1.714zm61.744 43.735h1.8v-.038l-.002-.037-1.798.075zm194.737-41.959l-1.319 1.224.001.002 1.318-1.226zm0 114.379l-1.318-1.226-.001.001 1.319 1.225zm-105.638 0l1.319-1.225-1.319 1.225zm0-114.379l1.319 1.224-1.319-1.224zM243.462 546.87h-66.691v3.6h66.691v-3.6zm-1.8-140.373V548.67h3.6V406.497h-3.6zm85.563 28.131c-30.521 0-58.048-9.829-82.638-29.535l-2.251 2.809c25.206 20.201 53.522 30.326 84.889 30.326v-3.6zm95.262-41.127c-25.983 27.437-57.701 41.127-95.262 41.127v3.6c38.556 0 71.217-14.102 97.875-42.252l-2.613-2.475zm38.454-104.056c0 41.642-12.843 76.29-38.471 104.073l2.647 2.441c26.302-28.516 39.424-64.063 39.424-106.514h-3.6zm-38.455-103.521c25.609 27.061 38.455 61.518 38.455 103.521h3.6c0-42.801-13.119-78.183-39.44-105.996l-2.615 2.475zm-95.261-41.662c37.913 0 69.622 13.866 95.245 41.645l2.647-2.441c-26.307-28.52-58.977-42.804-97.892-42.804v3.6zM212.8 196.622c37.72-43.823 85.626-52.36 114.425-52.36v-3.6c-29.442 0-78.523 8.731-117.153 53.611l2.728 2.349zm-.076-2.432c-21.302-21.826-59.021-34.313-98.122-24.805l.851 3.498c37.928-9.223 74.325 2.951 94.695 23.822l2.576-2.515zm-99.497-23.056v59.346h3.6v-59.346h-3.6zm2.353 61.06c14.155-4.564 29.028-2.881 40.315 4.1 11.238 6.95 19.04 19.217 19.04 36.161h3.6c0-18.178-8.437-31.61-20.746-39.222-12.259-7.582-28.239-9.325-43.314-4.466l1.105 3.427zm59.355 40.261c0 .626.012 1.238.037 1.835l3.597-.15a40.046 40.046 0 0 1-.034-1.685h-3.6zm3.636 276.215V274.215h-3.6V548.67h3.6zm194.256-317.639c-14.569-15.69-32.654-23.558-54.138-23.558v3.6c20.487 0 37.614 7.454 51.5 22.407l2.638-2.449zm22.355 58.414c0-22.879-7.447-42.387-22.356-58.415l-2.636 2.452c14.257 15.327 21.392 33.946 21.392 55.963h3.6zm-22.356 58.416c14.909-16.029 22.356-35.537 22.356-58.416h-3.6c0 22.018-7.135 40.636-21.392 55.964l2.636 2.452zm-54.137 23.557c21.484 0 39.569-7.868 54.138-23.558l-2.638-2.45c-13.886 14.954-31.013 22.408-51.5 22.408v3.6zm-54.138-23.558c14.569 15.69 32.654 23.558 54.138 23.558v-3.6c-20.487 0-37.615-7.454-51.5-22.408l-2.638 2.45zm0-116.829c-13.635 14.683-20.348 36.632-20.348 58.414 0 21.783 6.713 43.732 20.348 58.415l2.638-2.45c-12.854-13.842-19.386-34.82-19.386-55.965 0-21.144 6.532-42.122 19.386-55.965l-2.638-2.449zm54.138-23.558c-21.484 0-39.569 7.868-54.138 23.558l2.638 2.449c13.885-14.953 31.013-22.407 51.5-22.407v-3.6z" fill="#8E9096" mask="url(#path-116-outside-1)"/></g><g filter="url(#filter0_ddddd)"><path fill-rule="evenodd" clip-rule="evenodd" d="M220.846 566.64h-71.499V258.386a46.909 46.909 0 0 1-.041-1.974c0-38.063-33.963-56.419-65.84-48.152L80 194.647v-52.034c43.257-10.518 84.879 3.331 108.28 27.308 42.876-49.813 97.341-59.51 130.048-59.51 43.145 0 79.298 15.808 108.46 47.424 29.162 30.815 43.744 70.035 43.744 117.659 0 29.534-5.704 56.017-17.111 79.446l-67.249-34.643.139-.148-3.404-16.592s9.725-16.654 9.725-28.063c0-25.213-8.189-46.624-24.568-64.232-15.979-17.209-35.754-25.813-59.323-25.813-23.57 0-43.344 8.604-59.324 25.813-29.75 32.038-29.75 96.425 0 128.464 15.98 17.209 35.754 25.813 59.324 25.813 14.233 0 27.082-3.138 38.548-9.414l29.236 60.171 2.467 11.921c-18.481 8.24-38.703 12.36-60.664 12.36-34.755 0-66.114-11.206-94.078-33.617v145.474c-.88 4.68-2.156 9.785-3.404 14.206z" fill="url(#paint0_linear)"/><mask id="path-119-inside-2" fill="#fff"><path fill-rule="evenodd" clip-rule="evenodd" d="M224.25 552.175h-74.903V243.922c-.027-.642-.041-1.3-.041-1.975 0-39.447-36.477-57.727-69.306-47.144v-66.655c43.257-10.518 84.879 3.331 108.28 27.308 42.876-49.812 97.341-59.51 130.048-59.51 43.145 0 79.298 15.808 108.46 47.424 29.162 30.816 43.744 70.035 43.744 117.659 0 29.405-5.654 55.784-16.96 79.137l-70.454-36.484c6.343-12.746 9.514-26.963 9.514-42.653 0-25.212-8.189-46.623-24.568-64.232-15.979-17.209-35.754-25.813-59.323-25.813-23.57 0-43.344 8.604-59.324 25.813-29.75 32.039-29.75 96.426 0 128.464 15.98 17.209 35.754 25.813 59.324 25.813 13.242 0 25.286-2.716 36.132-8.147l32.026 71.738c-17.912 7.631-37.436 11.447-58.571 11.447-34.755 0-66.114-11.206-94.078-33.617v159.68z"/></mask><path fill-rule="evenodd" clip-rule="evenodd" d="M224.25 552.175h-74.903V243.922c-.027-.642-.041-1.3-.041-1.975 0-39.447-36.477-57.727-69.306-47.144v-66.655c43.257-10.518 84.879 3.331 108.28 27.308 42.876-49.812 97.341-59.51 130.048-59.51 43.145 0 79.298 15.808 108.46 47.424 29.162 30.816 43.744 70.035 43.744 117.659 0 29.405-5.654 55.784-16.96 79.137l-70.454-36.484c6.343-12.746 9.514-26.963 9.514-42.653 0-25.212-8.189-46.623-24.568-64.232-15.979-17.209-35.754-25.813-59.323-25.813-23.57 0-43.344 8.604-59.324 25.813-29.75 32.039-29.75 96.426 0 128.464 15.98 17.209 35.754 25.813 59.324 25.813 13.242 0 25.286-2.716 36.132-8.147l32.026 71.738c-17.912 7.631-37.436 11.447-58.571 11.447-34.755 0-66.114-11.206-94.078-33.617v159.68z" fill="url(#paint1_linear)"/><path d="M149.347 552.175h-2.3v2.3h2.3v-2.3zm74.903 0v2.3h2.3v-2.3h-2.3zm-74.903-308.253h2.3v-.048l-.002-.048-2.298.096zM80 194.803h-2.3v3.158l3.006-.969-.706-2.189zm0-66.655l-.543-2.234-1.757.427v1.807H80zm108.28 27.308l-1.646 1.607 1.753 1.795 1.637-1.901-1.744-1.501zm238.508-12.086l-1.69 1.56.01.011.01.01 1.67-1.581zm26.784 196.796l-1.058 2.043 2.098 1.086 1.03-2.126-2.07-1.003zm-70.454-36.484l-2.059-1.025-1.008 2.026 2.009 1.041 1.058-2.042zm-15.054-106.885l-1.685 1.565.001.002 1.684-1.567zm-118.647 0l1.686 1.565-1.686-1.565zm0 128.464l1.686-1.565-1.686 1.565zm95.456 17.666l2.1-.938-.98-2.196-2.15 1.077 1.03 2.057zm32.026 71.738l.901 2.116 2.153-.917-.954-2.137-2.1.938zm-152.649-22.17l1.438-1.795-3.738-2.996v4.791h2.3zm-74.903 161.98h74.903v-4.6h-74.903v4.6zm-2.3-310.553v308.253h4.6V243.922h-4.6zm-.041-1.975c0 .706.014 1.397.043 2.071l4.596-.192a44.06 44.06 0 0 1-.039-1.879h-4.6zm-66.3-44.955c15.827-5.102 32.446-3.216 45.048 4.578 12.538 7.754 21.252 21.442 21.252 40.377h4.6c0-20.512-9.525-35.688-23.432-44.289-13.843-8.562-31.878-10.525-48.88-5.044l1.412 4.378zM77.7 128.148v66.655h4.6v-66.655h-4.6zm112.226 25.702c-23.997-24.588-66.463-38.637-110.47-27.936l1.087 4.469c42.508-10.336 83.285 3.313 106.091 26.68l3.292-3.213zm128.402-60.203c-33.118 0-88.333 9.821-131.791 60.309l3.487 3.001c42.294-49.138 96.008-58.71 128.304-58.71v-4.6zm110.151 48.164c-29.6-32.09-66.367-48.165-110.151-48.165v4.6c42.505 0 78.044 15.542 106.77 46.684l3.381-3.119zm44.353 119.218c0-48.134-14.756-87.944-44.373-119.24l-3.341 3.162c28.707 30.335 43.114 68.964 43.114 116.078h4.6zm-17.19 80.14c11.477-23.705 17.19-50.434 17.19-80.14h-4.6c0 29.104-5.594 55.134-16.731 78.135l4.141 2.005zm-73.582-35.445l70.454 36.485 2.115-4.085-70.453-36.485-2.116 4.085zm8.272-44.695c0 15.371-3.104 29.232-9.273 41.628l4.118 2.049c6.517-13.095 9.755-27.668 9.755-43.677h-4.6zm-23.952-62.665c15.962 17.161 23.952 38.003 23.952 62.665h4.6c0-25.763-8.389-47.742-25.184-65.798l-3.368 3.133zm-57.639-25.08c22.932 0 42.095 8.34 57.638 25.078l3.37-3.13c-16.416-17.679-36.802-26.548-61.008-26.548v4.6zm-57.638 25.078c15.542-16.738 34.705-25.078 57.638-25.078v-4.6c-24.207 0-44.593 8.869-61.009 26.548l3.371 3.13zm0 125.334c-14.377-15.482-21.698-38.968-21.698-62.667 0-23.698 7.321-47.185 21.698-62.667l-3.371-3.13c-15.374 16.556-22.927 41.283-22.927 65.797 0 24.514 7.553 49.241 22.927 65.797l3.371-3.13zm57.638 25.078c-22.933 0-42.096-8.34-57.638-25.078l-3.371 3.13c16.416 17.68 36.802 26.548 61.009 26.548v-4.6zm35.102-7.904c-10.498 5.258-22.185 7.904-35.102 7.904v4.6c13.566 0 25.967-2.785 37.162-8.391l-2.06-4.113zm35.156 72.857l-32.026-71.738-4.201 1.875 32.026 71.738 4.201-1.875zm-60.671 14.685c21.418 0 41.252-3.868 59.472-11.631l-1.803-4.232c-17.603 7.5-36.817 11.263-57.669 11.263v4.6zm-95.516-34.122c28.358 22.727 60.221 34.122 95.516 34.122v-4.6c-34.215 0-65.07-11.016-92.64-33.112l-2.876 3.59zm3.738 157.885v-159.68h-4.6v159.68h4.6z" fill="url(#paint2_linear)" fill-opacity=".6" mask="url(#path-119-inside-2)"/><path d="M453.528 354.609v-14.465c2.978-6.381 4.255-8.934 6.382-15.315l2.978 5.53s-2.127 7.658-3.829 11.912c-1.702 4.255-5.531 12.338-5.531 12.338z" fill="url(#paint3_linear)" fill-opacity=".75"/></g><path d="M192.607 442.016v74.534h-74.454V308.855h-1.665v209.297h77.784v-76.536h-1.665v.4z" fill="#000" stroke="#000" stroke-width=".8"/><path fill="#005FF9" d="M110.473 305.246h13.633v13.633h-13.633zm0 203.686h13.633v13.633h-13.633zm76.181 0h13.633v13.633h-13.633zm0-75.38h13.633v13.633h-13.633z"/><rect x="297.915" y="231.161" width="103.685" height="34.839" rx="17.419" fill="#000" opacity=".3" filter="url(#filter1_f)"/><rect x="303.675" y="220.076" width="91.444" height="37.214" rx="18.607" fill="#000" opacity=".08" filter="url(#filter2_f)"/><rect x="282.9" y="207.9" width="131.986" height="42.632" rx="11.1" fill="#F2F2F2" stroke="url(#paint4_linear)" stroke-width="1.8"/><rect x="296.456" y="239.498" width="23.23" height="4.091" rx="1" fill="#005FF9" filter="url(#filter3_dddddd)"/><path d="M300.311 221.045h2v5.8c.2-.294.446-.56.74-.8.253-.2.566-.38.94-.54.373-.174.813-.26 1.32-.26.546 0 1.053.1 1.52.3.466.186.866.46 1.2.82.346.36.613.8.8 1.32.186.52.28 1.106.28 1.76v5.6h-2v-5.6c0-.707-.207-1.267-.62-1.68-.4-.414-.927-.62-1.58-.62-.374 0-.72.066-1.04.2a2.35 2.35 0 0 0-.82.56 2.442 2.442 0 0 0-.54.84c-.134.333-.2.7-.2 1.1v5.2h-2v-14zm13.399 3.3h-2.5v-1.4c.453-.054.84-.134 1.16-.24.32-.107.593-.24.82-.4.24-.174.44-.36.6-.56.16-.214.3-.447.42-.7h1.7v14h-2.2v-10.7zm24-3.3h2v5.8c.2-.294.446-.56.74-.8.253-.2.566-.38.94-.54.373-.174.813-.26 1.32-.26.546 0 1.053.1 1.52.3.466.186.866.46 1.2.82.346.36.613.8.8 1.32.186.52.28 1.106.28 1.76v5.6h-2v-5.6c0-.707-.207-1.267-.62-1.68-.4-.414-.927-.62-1.58-.62-.374 0-.72.066-1.04.2a2.35 2.35 0 0 0-.82.56 2.442 2.442 0 0 0-.54.84c-.134.333-.2.7-.2 1.1v5.2h-2v-14zm20.299 11.9v2.1h-9.4c0-1.054.173-1.947.52-2.68a6.937 6.937 0 0 1 1.34-1.92 9.733 9.733 0 0 1 1.74-1.42 50.984 50.984 0 0 0 1.74-1.2 7.357 7.357 0 0 0 1.32-1.2c.36-.414.54-.907.54-1.48 0-.654-.22-1.18-.66-1.58-.427-.414-1.04-.62-1.84-.62-.534 0-.974.1-1.32.3-.334.2-.607.42-.82.66-.24.28-.427.593-.56.94l-1.8-.8c.186-.6.473-1.134.86-1.6.333-.4.786-.767 1.36-1.1.586-.334 1.346-.5 2.28-.5.693 0 1.326.113 1.9.34.586.213 1.086.52 1.5.92.413.386.733.84.96 1.36.226.52.34 1.08.34 1.68 0 .68-.134 1.273-.4 1.78a5.332 5.332 0 0 1-1 1.38c-.414.4-.88.773-1.4 1.12-.52.333-1.034.68-1.54 1.04-.494.346-.96.72-1.4 1.12-.44.386-.794.84-1.06 1.36h6.8zm21.341-11.9h2v5.8c.2-.294.447-.56.74-.8.254-.2.567-.38.94-.54.374-.174.814-.26 1.32-.26.547 0 1.054.1 1.52.3.467.186.867.46 1.2.82.347.36.614.8.8 1.32.187.52.28 1.106.28 1.76v5.6h-2v-5.6c0-.707-.206-1.267-.62-1.68-.4-.414-.926-.62-1.58-.62-.373 0-.72.066-1.04.2a2.36 2.36 0 0 0-.82.56 2.471 2.471 0 0 0-.54.84c-.133.333-.2.7-.2 1.1v5.2h-2v-14zm12.099 10.6c.227.293.507.56.84.8.28.2.627.386 1.04.56.427.16.934.24 1.52.24.907 0 1.6-.22 2.08-.66.48-.44.72-.987.72-1.64 0-.6-.24-1.114-.72-1.54-.48-.44-1.173-.66-2.08-.66h-1.5v-2.1h1.5c.76 0 1.334-.174 1.72-.52.387-.36.58-.82.58-1.38 0-.56-.193-1.014-.58-1.36-.386-.36-.96-.54-1.72-.54-.48 0-.906.073-1.28.22-.36.146-.673.306-.94.48a3.995 3.995 0 0 0-.78.7l-1.5-1.5c.334-.347.72-.66 1.16-.94a7.67 7.67 0 0 1 1.4-.66c.56-.2 1.207-.3 1.94-.3.694 0 1.32.1 1.88.3.56.2 1.034.466 1.42.8.387.333.68.726.88 1.18.214.453.32.926.32 1.42 0 .586-.113 1.08-.34 1.48-.213.386-.453.7-.72.94-.306.28-.653.506-1.04.68.48.173.914.413 1.3.72.32.266.614.62.88 1.06.28.426.42.966.42 1.62 0 .573-.12 1.12-.36 1.64a3.995 3.995 0 0 1-.98 1.34c-.426.373-.953.673-1.58.9-.613.213-1.306.32-2.08.32-.84 0-1.56-.107-2.16-.32a7.44 7.44 0 0 1-1.52-.72 5.275 5.275 0 0 1-1.22-1.06l1.5-1.5z" fill="#000"/><rect x="312.356" y="504.467" width="161.417" height="38.145" rx="19.073" fill="#000" opacity=".3" filter="url(#filter4_f)"/><rect x="321.324" y="492.33" width="142.361" height="40.746" rx="20" fill="#000" opacity=".08" filter="url(#filter5_f)"/><rect x="288.596" y="479.359" width="206.697" height="52.817" rx="14.1" fill="#F2F2F2" stroke="url(#paint5_linear)" stroke-width="1.8"/><rect x="306.941" y="494.497" width="22.454" height="22.454" rx="5" fill="#3A3C43"/><g filter="url(#filter6_dddddd)"><rect x="413.596" y="488.884" width="33.68" height="33.68" rx="10" fill="#005FF9" fill-opacity=".9" filter="url(#filter7_i)"/></g><rect x="419.209" y="494.497" width="22.454" height="22.454" rx="5" fill="#CED1D9"/><rect x="456.097" y="494.497" width="22.454" height="22.454" rx="5" fill="#D8DAE0"/><rect x="345.433" y="494.497" width="22.454" height="22.454" rx="5" fill="#707482"/><rect x="382.321" y="494.497" width="22.454" height="22.454" rx="5" fill="#AFB3BF"/><rect x="170.617" y="45.426" width="155.515" height="90.616" rx="20" fill="#000" opacity=".7" filter="url(#filter8_f)"/><rect x="160.191" y="72.691" width="176.071" height="83.399" rx="41.7" fill="#000" opacity=".3" filter="url(#filter9_f)"/><rect x="146.559" y="6.934" width="202.884" height="120.829" rx="17" fill="url(#paint6_linear)"/><path d="M146.559 22.33c0-9.388 7.611-17 17-17h168.884c9.389 0 17 7.611 17 17v13.473H146.559V22.33z" fill="url(#paint7_linear)"/><path d="M165.003 77.388h2.795v3.208h-2.795v-3.208zm9.798 0h2.794v3.208h-2.794v-3.208zm9.797 0h2.795v3.208h-2.795v-3.208z" fill="#BCBCBC"/><path d="M173.951 54.644l-5.823 2.087 5.823 2.073v1.824l-7.742-3.04V55.86l7.742-3.047v1.83zm6.445-.256V50.03h2.139v11.396h-2.139V60.21c-.229.474-.527.83-.893 1.07-.361.239-.789.358-1.282.358-.937 0-1.665-.375-2.182-1.127-.518-.753-.777-1.812-.777-3.18 0-1.386.261-2.45.784-3.193.527-.742 1.277-1.113 2.248-1.113.44 0 .833.115 1.18.344.351.225.659.564.922 1.019zm-2.988 2.958c0 .792.132 1.412.396 1.86.263.45.627.675 1.091.675.464 0 .83-.225 1.099-.674.268-.45.402-1.07.402-1.86 0-.792-.134-1.412-.402-1.86-.269-.45-.635-.675-1.099-.675-.464 0-.828.225-1.091.674-.264.45-.396 1.07-.396 1.86zm7.852-4.123h4.248v6.555h2.666v1.648h-7.486v-1.648h2.674v-4.907h-2.102v-1.648zm2.102-3.992h2.146v2.505h-2.146v-2.505zm13.762 3.992l-2.607 8.203h-2.644l-2.608-8.203h2.175l1.751 6.401 1.758-6.401h2.175z" fill="#5F9FFF"/><path d="M218.526 61.008a4.4 4.4 0 0 1-1.164.47 5.339 5.339 0 0 1-1.341.16c-1.264 0-2.253-.38-2.966-1.142-.713-.762-1.069-1.817-1.069-3.164 0-1.353.359-2.41 1.076-3.172.718-.766 1.709-1.15 2.974-1.15a5.143 5.143 0 0 1 2.49.63v1.963a3.419 3.419 0 0 0-1.032-.615 3.127 3.127 0 0 0-1.158-.22c-.698 0-1.235.222-1.611.667-.376.444-.564 1.076-.564 1.897 0 .82.188 1.45.564 1.89.376.439.913.659 1.611.659.415 0 .804-.069 1.165-.206a3.471 3.471 0 0 0 1.025-.637v1.97zm4.102-3.002v-6.328h-2.175V50.03h4.321v7.976c0 .644.1 1.1.3 1.37.2.268.54.402 1.018.402h1.714v1.648h-2.314c-1.021 0-1.753-.264-2.198-.791-.444-.527-.666-1.404-.666-2.63zm11.33-.432c-.8 0-1.359.102-1.677.307-.317.205-.476.557-.476 1.055 0 .37.11.666.33.886.219.22.517.33.893.33.567 0 1.006-.213 1.319-.638.312-.43.468-1.027.468-1.794v-.146h-.857zm2.989-.828v4.68h-2.132v-.916c-.258.362-.59.64-.996.836a3.045 3.045 0 0 1-1.34.292c-.933 0-1.66-.246-2.183-.74-.517-.492-.776-1.181-.776-2.065 0-.957.31-1.662.93-2.116.62-.46 1.58-.689 2.879-.689h1.486v-.359c0-.346-.127-.608-.38-.783-.249-.181-.618-.272-1.106-.272-.513 0-1.011.066-1.495.198a6.866 6.866 0 0 0-1.501.616v-1.832a7.453 7.453 0 0 1 1.443-.432 8.308 8.308 0 0 1 1.553-.139c1.333 0 2.268.271 2.805.813.542.542.813 1.511.813 2.908zm8.181-3.267v1.875a4.806 4.806 0 0 0-1.238-.571 4.302 4.302 0 0 0-1.282-.198c-.478 0-.839.071-1.084.213a.663.663 0 0 0-.366.615c0 .39.523.708 1.568.952l.08.022.615.146c.782.186 1.353.486 1.714.901.366.41.55.967.55 1.67 0 .845-.279 1.48-.835 1.904-.552.42-1.385.63-2.498.63-.493 0-.998-.044-1.516-.131a10.667 10.667 0 0 1-1.575-.381V59.25c.474.268.955.473 1.443.615a5.15 5.15 0 0 0 1.428.212c.503 0 .884-.073 1.143-.22.259-.146.388-.358.388-.637 0-.273-.093-.483-.278-.63-.181-.146-.615-.302-1.304-.468l-.593-.132c-.821-.186-1.419-.476-1.795-.872-.376-.395-.564-.925-.564-1.589 0-.791.286-1.406.857-1.846.572-.44 1.375-.659 2.41-.659.464 0 .925.04 1.384.117.464.074.913.186 1.348.337zm9.038 0v1.875a4.806 4.806 0 0 0-1.238-.571 4.302 4.302 0 0 0-1.282-.198c-.478 0-.839.071-1.084.213a.663.663 0 0 0-.366.615c0 .39.523.708 1.568.952l.08.022.615.146c.782.186 1.353.486 1.714.901.367.41.55.967.55 1.67 0 .845-.279 1.48-.835 1.904-.552.42-1.385.63-2.498.63-.493 0-.998-.044-1.516-.131a10.698 10.698 0 0 1-1.575-.381V59.25c.474.268.955.473 1.443.615a5.15 5.15 0 0 0 1.428.212c.503 0 .884-.073 1.143-.22.259-.146.388-.358.388-.637 0-.273-.093-.483-.278-.63-.181-.146-.615-.302-1.304-.468l-.593-.132c-.82-.186-1.419-.476-1.795-.872-.376-.395-.564-.925-.564-1.589 0-.791.286-1.406.857-1.846.572-.44 1.375-.659 2.41-.659.464 0 .925.04 1.384.117.464.074.913.186 1.348.337zm2.424 4.05h7.742v1.736h-7.742V57.53zm0-3.332h7.742v1.721h-7.742v-1.721z" fill="#FF7D7D"/><path d="M272.301 50.491v4.065h-1.875V50.49h1.875zm-3.75 0v4.065h-1.875V50.49h1.875zm8.76 8.247h2.438v2.688h-2.438v-2.688zm9.038 0h2.439v2.688h-2.439v-2.688zm9.038 0h2.439v2.688h-2.439v-2.688zm13.066-8.247v4.065h-1.875V50.49h1.875zm-3.75 0v4.065h-1.875V50.49h1.875zm6.116 4.153v-1.831l7.742 3.047v1.728l-7.742 3.04v-1.824l5.823-2.073-5.823-2.087z" fill="#71BB38"/><path d="M173.139 100.353l-5.823 2.087 5.823 2.073v1.824l-7.742-3.04v-1.728l7.742-3.047v1.831zm7.236-4.153h1.619l-5.757 12.327h-1.618l5.756-12.327zm8.248 3.896v-4.358h2.138v11.397h-2.138v-1.216c-.23.474-.528.83-.894 1.07-.361.239-.789.358-1.282.358-.937 0-1.665-.376-2.182-1.128-.518-.751-.777-1.811-.777-3.178 0-1.387.261-2.451.784-3.194.527-.742 1.277-1.113 2.248-1.113.44 0 .833.115 1.18.344.351.225.659.564.923 1.018zm-2.989 2.959c0 .791.132 1.412.396 1.861.263.449.627.674 1.091.674.464 0 .83-.225 1.099-.674.268-.449.403-1.07.403-1.861 0-.791-.135-1.411-.403-1.86-.269-.449-.635-.674-1.099-.674-.464 0-.828.225-1.091.674-.264.449-.396 1.069-.396 1.86zm7.852-4.123h4.248v6.555h2.666v1.648h-7.485v-1.648h2.673v-4.907h-2.102v-1.648zm2.102-3.992h2.146v2.505h-2.146V94.94zm13.762 3.992l-2.607 8.203h-2.644l-2.608-8.203h2.175l1.751 6.401 1.758-6.401h2.175zm1.238 1.421v-1.831l7.742 3.047v1.728l-7.742 3.04v-1.824l5.823-2.073-5.823-2.087z" fill="#5F9FFF"/><path fill="#fff" d="M225.146 91.135h2.406v21.652h-2.406z"/><path fill-rule="evenodd" clip-rule="evenodd" d="M326.965 3.422A3.42 3.42 0 0 0 323.546 0h-12.384a3.42 3.42 0 0 0-3.419 3.422v21.667a1.924 1.924 0 0 0 3.157 1.476l5.691-4.765a1.188 1.188 0 0 1 1.526 0l5.691 4.765a1.922 1.922 0 0 0 3.157-1.476V3.422z" fill="#FB3636" opacity=".48" filter="url(#filter10_ddddddd)"/><path fill-rule="evenodd" clip-rule="evenodd" d="M326.965 2.62c0-1.89-.729-2.62-2.617-2.62H310.36c-1.888 0-2.617.73-2.617 2.62v22.47a1.924 1.924 0 0 0 3.157 1.475l5.691-4.765a1.188 1.188 0 0 1 1.526 0l5.691 4.765a1.922 1.922 0 0 0 3.157-1.476V2.62z" fill="#FB3636"/><path fill-rule="evenodd" clip-rule="evenodd" d="M326.965 2.62c0-1.89-.729-2.62-2.617-2.62H310.36c-1.888 0-2.617.73-2.617 2.62v22.47a1.924 1.924 0 0 0 3.157 1.475l5.691-4.765a1.188 1.188 0 0 1 1.526 0l5.691 4.765a1.922 1.922 0 0 0 3.157-1.476V2.62z" fill="url(#paint8_linear)"/><ellipse cx="483.235" cy="301.27" rx="15.96" ry="18.833" fill="#F00" style="mix-blend-mode:multiply" filter="url(#filter11_f)"/><g opacity=".65"><circle cx="482.961" cy="280.8" r="25.26" fill="#FF452C"/><circle cx="482.961" cy="280.8" r="25.26" fill="url(#paint9_linear)"/></g><path d="M499.196 294.251c0 9.342-7.146 16.915-15.961 16.915-8.814 0-15.96-7.573-15.96-16.915 0-9.342 7.146 0 15.96 0 8.815 0 15.961-9.342 15.961 0z" fill="#9C0000" fill-opacity=".68" filter="url(#filter12_f)"/><circle cx="482.961" cy="280.787" r="25.26" fill="url(#paint10_linear)"/><g filter="url(#filter13_ddd)"><g filter="url(#filter14_i)" clip-path="url(#clip0)"><path d="M475.822 292.113h-5.076l10.8-25.2h3.924l10.8 25.2h-5.076l-1.98-4.752h-11.412l-1.98 4.752zm11.52-9.18l-3.816-9.144-3.852 9.144h7.668z" fill="#FF9E89"/><path d="M475.822 292.113h-5.076l10.8-25.2h3.924l10.8 25.2h-5.076l-1.98-4.752h-11.412l-1.98 4.752zm11.52-9.18l-3.816-9.144-3.852 9.144h7.668z" fill="url(#paint11_linear)" fill-opacity=".3"/></g></g><defs><filter id="filter0_ddddd" x="0" y="95.947" width="550.532" height="650.693" filterUnits="userSpaceOnUse" color-interpolation-filters="sRGB"><feFlood flood-opacity="0" result="BackgroundImageFix"/><feColorMatrix in="SourceAlpha" values="0 0 0 0 0 0 0 0 0 0 0 0 0 0 0 0 0 0 127 0"/><feOffset dy="3.435"/><feGaussianBlur stdDeviation="1.374"/><feColorMatrix values="0 0 0 0 0.0784314 0 0 0 0 0.0784314 0 0 0 0 0.0784314 0 0 0 0.108506 0"/><feBlend in2="BackgroundImageFix" result="effect1_dropShadow"/><feColorMatrix in="SourceAlpha" values="0 0 0 0 0 0 0 0 0 0 0 0 0 0 0 0 0 0 127 0"/><feOffset dy="8.687"/><feGaussianBlur stdDeviation="3.475"/><feColorMatrix values="0 0 0 0 0.0784314 0 0 0 0 0.0784314 0 0 0 0 0.0784314 0 0 0 0.05 0"/><feBlend in2="effect1_dropShadow" result="effect2_dropShadow"/><feColorMatrix in="SourceAlpha" values="0 0 0 0 0 0 0 0 0 0 0 0 0 0 0 0 0 0 127 0"/><feOffset dx="3" dy="17.721"/><feGaussianBlur stdDeviation="7.088"/><feColorMatrix values="0 0 0 0 0.0784314 0 0 0 0 0.0784314 0 0 0 0 0.0784314 0 0 0 0.08 0"/><feBlend in2="effect2_dropShadow" result="effect3_dropShadow"/><feColorMatrix in="SourceAlpha" values="0 0 0 0 0 0 0 0 0 0 0 0 0 0 0 0 0 0 127 0"/><feOffset dy="36.502"/><feGaussianBlur stdDeviation="14.601"/><feColorMatrix values="0 0 0 0 0.0784314 0 0 0 0 0.0784314 0 0 0 0 0.0784314 0 0 0 0.17 0"/><feBlend in2="effect3_dropShadow" result="effect4_dropShadow"/><feColorMatrix in="SourceAlpha" values="0 0 0 0 0 0 0 0 0 0 0 0 0 0 0 0 0 0 127 0"/><feOffset dy="100"/><feGaussianBlur stdDeviation="40"/><feColorMatrix values="0 0 0 0 0.0784314 0 0 0 0 0.0784314 0 0 0 0 0.0784314 0 0 0 0.07 0"/><feBlend in2="effect4_dropShadow" result="effect5_dropShadow"/><feBlend in="SourceGraphic" in2="effect5_dropShadow" result="shape"/></filter><filter id="filter1_f" x="250.915" y="184.161" width="197.685" height="128.839" filterUnits="userSpaceOnUse" color-interpolation-filters="sRGB"><feFlood flood-opacity="0" result="BackgroundImageFix"/><feBlend in="SourceGraphic" in2="BackgroundImageFix" result="shape"/><feGaussianBlur stdDeviation="23.5" result="effect1_foregroundBlur"/></filter><filter id="filter2_f" x="283.675" y="200.076" width="131.444" height="77.214" filterUnits="userSpaceOnUse" color-interpolation-filters="sRGB"><feFlood flood-opacity="0" result="BackgroundImageFix"/><feBlend in="SourceGraphic" in2="BackgroundImageFix" result="shape"/><feGaussianBlur stdDeviation="10" result="effect1_foregroundBlur"/></filter><filter id="filter3_dddddd" x="216.456" y="211.498" width="183.23" height="164.091" filterUnits="userSpaceOnUse" color-interpolation-filters="sRGB"><feFlood flood-opacity="0" result="BackgroundImageFix"/><feColorMatrix in="SourceAlpha" values="0 0 0 0 0 0 0 0 0 0 0 0 0 0 0 0 0 0 127 0"/><feOffset dy="1.439"/><feGaussianBlur stdDeviation="1.107"/><feColorMatrix values="0 0 0 0 0.0196078 0 0 0 0 0.321569 0 0 0 0 0.996078 0 0 0 0.7 0"/><feBlend in2="BackgroundImageFix" result="effect1_dropShadow"/><feColorMatrix in="SourceAlpha" values="0 0 0 0 0 0 0 0 0 0 0 0 0 0 0 0 0 0 127 0"/><feOffset dy="3.458"/><feGaussianBlur stdDeviation="2.66"/><feColorMatrix values="0 0 0 0 0.0196078 0 0 0 0 0.321569 0 0 0 0 0.996078 0 0 0 0.503198 0"/><feBlend in2="effect1_dropShadow" result="effect2_dropShadow"/><feColorMatrix in="SourceAlpha" values="0 0 0 0 0 0 0 0 0 0 0 0 0 0 0 0 0 0 127 0"/><feOffset dy="6.511"/><feGaussianBlur stdDeviation="5.009"/><feColorMatrix values="0 0 0 0 0.0196078 0 0 0 0 0.321569 0 0 0 0 0.996078 0 0 0 0.417275 0"/><feBlend in2="effect2_dropShadow" result="effect3_dropShadow"/><feColorMatrix in="SourceAlpha" values="0 0 0 0 0 0 0 0 0 0 0 0 0 0 0 0 0 0 127 0"/><feOffset dy="11.615"/><feGaussianBlur stdDeviation="8.935"/><feColorMatrix values="0 0 0 0 0.0196078 0 0 0 0 0.321569 0 0 0 0 0.996078 0 0 0 0.35 0"/><feBlend in2="effect3_dropShadow" result="effect4_dropShadow"/><feColorMatrix in="SourceAlpha" values="0 0 0 0 0 0 0 0 0 0 0 0 0 0 0 0 0 0 127 0"/><feOffset dy="21.724"/><feGaussianBlur stdDeviation="16.711"/><feColorMatrix values="0 0 0 0 0.0196078 0 0 0 0 0.321569 0 0 0 0 0.996078 0 0 0 0.282725 0"/><feBlend in2="effect4_dropShadow" result="effect5_dropShadow"/><feColorMatrix in="SourceAlpha" values="0 0 0 0 0 0 0 0 0 0 0 0 0 0 0 0 0 0 127 0"/><feOffset dy="52"/><feGaussianBlur stdDeviation="40"/><feColorMatrix values="0 0 0 0 0.0196078 0 0 0 0 0.321569 0 0 0 0 0.996078 0 0 0 0.196802 0"/><feBlend in2="effect5_dropShadow" result="effect6_dropShadow"/><feBlend in="SourceGraphic" in2="effect6_dropShadow" result="shape"/></filter><filter id="filter4_f" x="265.356" y="457.467" width="255.417" height="132.145" filterUnits="userSpaceOnUse" color-interpolation-filters="sRGB"><feFlood flood-opacity="0" result="BackgroundImageFix"/><feBlend in="SourceGraphic" in2="BackgroundImageFix" result="shape"/><feGaussianBlur stdDeviation="23.5" result="effect1_foregroundBlur"/></filter><filter id="filter5_f" x="301.324" y="472.33" width="182.361" height="80.746" filterUnits="userSpaceOnUse" color-interpolation-filters="sRGB"><feFlood flood-opacity="0" result="BackgroundImageFix"/><feBlend in="SourceGraphic" in2="BackgroundImageFix" result="shape"/><feGaussianBlur stdDeviation="10" result="effect1_foregroundBlur"/></filter><filter id="filter6_dddddd" x="333.596" y="479.884" width="193.68" height="193.68" filterUnits="userSpaceOnUse" color-interpolation-filters="sRGB"><feFlood flood-opacity="0" result="BackgroundImageFix"/><feColorMatrix in="SourceAlpha" values="0 0 0 0 0 0 0 0 0 0 0 0 0 0 0 0 0 0 127 0"/><feOffset dy="1.965"/><feGaussianBlur stdDeviation="1.107"/><feColorMatrix values="0 0 0 0 0.0392157 0 0 0 0 0.25098 0 0 0 0 0.984314 0 0 0 0.35 0"/><feBlend in2="BackgroundImageFix" result="effect1_dropShadow"/><feColorMatrix in="SourceAlpha" values="0 0 0 0 0 0 0 0 0 0 0 0 0 0 0 0 0 0 127 0"/><feOffset dy="4.722"/><feGaussianBlur stdDeviation="2.66"/><feColorMatrix values="0 0 0 0 0.0392157 0 0 0 0 0.25098 0 0 0 0 0.984314 0 0 0 0.251599 0"/><feBlend in2="effect1_dropShadow" result="effect2_dropShadow"/><feColorMatrix in="SourceAlpha" values="0 0 0 0 0 0 0 0 0 0 0 0 0 0 0 0 0 0 127 0"/><feOffset dy="8.89"/><feGaussianBlur stdDeviation="5.009"/><feColorMatrix values="0 0 0 0 0.0392157 0 0 0 0 0.25098 0 0 0 0 0.984314 0 0 0 0.208638 0"/><feBlend in2="effect2_dropShadow" result="effect3_dropShadow"/><feColorMatrix in="SourceAlpha" values="0 0 0 0 0 0 0 0 0 0 0 0 0 0 0 0 0 0 127 0"/><feOffset dy="15.859"/><feGaussianBlur stdDeviation="8.935"/><feColorMatrix values="0 0 0 0 0.0392157 0 0 0 0 0.25098 0 0 0 0 0.984314 0 0 0 0.175 0"/><feBlend in2="effect3_dropShadow" result="effect4_dropShadow"/><feColorMatrix in="SourceAlpha" values="0 0 0 0 0 0 0 0 0 0 0 0 0 0 0 0 0 0 127 0"/><feOffset dy="29.662"/><feGaussianBlur stdDeviation="16.711"/><feColorMatrix values="0 0 0 0 0.0392157 0 0 0 0 0.25098 0 0 0 0 0.984314 0 0 0 0.141362 0"/><feBlend in2="effect4_dropShadow" result="effect5_dropShadow"/><feColorMatrix in="SourceAlpha" values="0 0 0 0 0 0 0 0 0 0 0 0 0 0 0 0 0 0 127 0"/><feOffset dy="71"/><feGaussianBlur stdDeviation="40"/><feColorMatrix values="0 0 0 0 0.0392157 0 0 0 0 0.25098 0 0 0 0 0.984314 0 0 0 0.098401 0"/><feBlend in2="effect5_dropShadow" result="effect6_dropShadow"/><feBlend in="SourceGraphic" in2="effect6_dropShadow" result="shape"/></filter><filter id="filter7_i" x="413.596" y="488.884" width="33.68" height="33.68" filterUnits="userSpaceOnUse" color-interpolation-filters="sRGB"><feFlood flood-opacity="0" result="BackgroundImageFix"/><feBlend in="SourceGraphic" in2="BackgroundImageFix" result="shape"/><feColorMatrix in="SourceAlpha" values="0 0 0 0 0 0 0 0 0 0 0 0 0 0 0 0 0 0 127 0" result="hardAlpha"/><feOffset/><feGaussianBlur stdDeviation="2"/><feComposite in2="hardAlpha" operator="arithmetic" k2="-1" k3="1"/><feColorMatrix values="0 0 0 0 0.570833 0 0 0 0 0 0 0 0 0 0 0 0 0 0.16 0"/><feBlend in2="shape" result="effect1_innerShadow"/></filter><filter id="filter8_f" x="150.617" y="25.426" width="195.515" height="130.616" filterUnits="userSpaceOnUse" color-interpolation-filters="sRGB"><feFlood flood-opacity="0" result="BackgroundImageFix"/><feBlend in="SourceGraphic" in2="BackgroundImageFix" result="shape"/><feGaussianBlur stdDeviation="10" result="effect1_foregroundBlur"/></filter><filter id="filter9_f" x="113.191" y="25.691" width="270.071" height="177.399" filterUnits="userSpaceOnUse" color-interpolation-filters="sRGB"><feFlood flood-opacity="0" result="BackgroundImageFix"/><feBlend in="SourceGraphic" in2="BackgroundImageFix" result="shape"/><feGaussianBlur stdDeviation="23.5" result="effect1_foregroundBlur"/></filter><filter id="filter10_ddddddd" x="247.743" y="0" width="139.222" height="169.014" filterUnits="userSpaceOnUse" color-interpolation-filters="sRGB"><feFlood flood-opacity="0" result="BackgroundImageFix"/><feColorMatrix in="SourceAlpha" values="0 0 0 0 0 0 0 0 0 0 0 0 0 0 0 0 0 0 127 0"/><feOffset dy="1.9"/><feGaussianBlur stdDeviation=".695"/><feColorMatrix values="0 0 0 0 0.796078 0 0 0 0 0 0 0 0 0 0.0901961 0 0 0 0.34 0"/><feBlend in2="BackgroundImageFix" result="effect1_dropShadow"/><feColorMatrix in="SourceAlpha" values="0 0 0 0 0 0 0 0 0 0 0 0 0 0 0 0 0 0 127 0"/><feOffset dy="4.418"/><feGaussianBlur stdDeviation="1.616"/><feColorMatrix values="0 0 0 0 0.796078 0 0 0 0 0 0 0 0 0 0.0901961 0 0 0 0.25217 0"/><feBlend in2="effect1_dropShadow" result="effect2_dropShadow"/><feColorMatrix in="SourceAlpha" values="0 0 0 0 0 0 0 0 0 0 0 0 0 0 0 0 0 0 127 0"/><feOffset dy="7.934"/><feGaussianBlur stdDeviation="2.903"/><feColorMatrix values="0 0 0 0 0.796078 0 0 0 0 0 0 0 0 0 0.0901961 0 0 0 0.213106 0"/><feBlend in2="effect2_dropShadow" result="effect3_dropShadow"/><feColorMatrix in="SourceAlpha" values="0 0 0 0 0 0 0 0 0 0 0 0 0 0 0 0 0 0 127 0"/><feOffset dy="13.167"/><feGaussianBlur stdDeviation="4.817"/><feColorMatrix values="0 0 0 0 0.796078 0 0 0 0 0 0 0 0 0 0.0901961 0 0 0 0.183582 0"/><feBlend in2="effect3_dropShadow" result="effect4_dropShadow"/><feColorMatrix in="SourceAlpha" values="0 0 0 0 0 0 0 0 0 0 0 0 0 0 0 0 0 0 127 0"/><feOffset dy="21.692"/><feGaussianBlur stdDeviation="7.936"/><feColorMatrix values="0 0 0 0 0.796078 0 0 0 0 0 0 0 0 0 0.0901961 0 0 0 0.156418 0"/><feBlend in2="effect4_dropShadow" result="effect5_dropShadow"/><feColorMatrix in="SourceAlpha" values="0 0 0 0 0 0 0 0 0 0 0 0 0 0 0 0 0 0 127 0"/><feOffset dy="37.911"/><feGaussianBlur stdDeviation="13.87"/><feColorMatrix values="0 0 0 0 0.796078 0 0 0 0 0 0 0 0 0 0.0901961 0 0 0 0.126894 0"/><feBlend in2="effect5_dropShadow" result="effect6_dropShadow"/><feColorMatrix in="SourceAlpha" values="0 0 0 0 0 0 0 0 0 0 0 0 0 0 0 0 0 0 127 0"/><feOffset dy="82"/><feGaussianBlur stdDeviation="30"/><feColorMatrix values="0 0 0 0 0.796078 0 0 0 0 0 0 0 0 0 0.0901961 0 0 0 0.0878304 0"/><feBlend in2="effect6_dropShadow" result="effect7_dropShadow"/><feBlend in="SourceGraphic" in2="effect7_dropShadow" result="shape"/></filter><filter id="filter11_f" x="413.275" y="228.437" width="139.921" height="145.666" filterUnits="userSpaceOnUse" color-interpolation-filters="sRGB"><feFlood flood-opacity="0" result="BackgroundImageFix"/><feBlend in="SourceGraphic" in2="BackgroundImageFix" result="shape"/><feGaussianBlur stdDeviation="27" result="effect1_foregroundBlur"/></filter><filter id="filter12_f" x="453.275" y="276.099" width="59.921" height="49.068" filterUnits="userSpaceOnUse" color-interpolation-filters="sRGB"><feFlood flood-opacity="0" result="BackgroundImageFix"/><feBlend in="SourceGraphic" in2="BackgroundImageFix" result="shape"/><feGaussianBlur stdDeviation="7" result="effect1_foregroundBlur"/></filter><filter id="filter13_ddd" x="445.886" y="249.141" width="74.443" height="95.365" filterUnits="userSpaceOnUse" color-interpolation-filters="sRGB"><feFlood flood-opacity="0" result="BackgroundImageFix"/><feColorMatrix in="SourceAlpha" values="0 0 0 0 0 0 0 0 0 0 0 0 0 0 0 0 0 0 127 0"/><feOffset dy=".599"/><feGaussianBlur stdDeviation=".532"/><feColorMatrix values="0 0 0 0 0.541176 0 0 0 0 0 0 0 0 0 0 0 0 0 0.298881 0"/><feBlend in2="BackgroundImageFix" result="effect1_dropShadow"/><feColorMatrix in="SourceAlpha" values="0 0 0 0 0 0 0 0 0 0 0 0 0 0 0 0 0 0 127 0"/><feOffset dy="2.01"/><feGaussianBlur stdDeviation="1.787"/><feColorMatrix values="0 0 0 0 0.541176 0 0 0 0 0 0 0 0 0 0 0 0 0 0.441119 0"/><feBlend in2="effect1_dropShadow" result="effect2_dropShadow"/><feColorMatrix in="SourceAlpha" values="0 0 0 0 0 0 0 0 0 0 0 0 0 0 0 0 0 0 127 0"/><feOffset dy="9"/><feGaussianBlur stdDeviation="8"/><feColorMatrix values="0 0 0 0 0.541667 0 0 0 0 0 0 0 0 0 0 0 0 0 0.74 0"/><feBlend in2="effect2_dropShadow" result="effect3_dropShadow"/><feBlend in="SourceGraphic" in2="effect3_dropShadow" result="shape"/></filter><filter id="filter14_i" x="470.746" y="266.913" width="25.524" height="26.2" filterUnits="userSpaceOnUse" color-interpolation-filters="sRGB"><feFlood flood-opacity="0" result="BackgroundImageFix"/><feBlend in="SourceGraphic" in2="BackgroundImageFix" result="shape"/><feColorMatrix in="SourceAlpha" values="0 0 0 0 0 0 0 0 0 0 0 0 0 0 0 0 0 0 127 0" result="hardAlpha"/><feOffset dy="1"/><feGaussianBlur stdDeviation=".5"/><feComposite in2="hardAlpha" operator="arithmetic" k2="-1" k3="1"/><feColorMatrix values="0 0 0 0 1 0 0 0 0 1 0 0 0 0 1 0 0 0 0.25 0"/><feBlend in2="shape" result="effect1_innerShadow"/></filter><linearGradient id="paint0_linear" x1="236.107" y1="-5.191" x2="376.692" y2="864.212" gradientUnits="userSpaceOnUse"><stop stop-color="#EEF0F1"/><stop offset="1" stop-color="#9B9C9D"/></linearGradient><linearGradient id="paint1_linear" x1="275.266" y1="95.947" x2="321.441" y2="862.386" gradientUnits="userSpaceOnUse"><stop stop-color="#F2F2F2"/><stop offset="1" stop-color="#DFDFDF"/></linearGradient><linearGradient id="paint2_linear" x1="275.266" y1="95.947" x2="279.102" y2="294.198" gradientUnits="userSpaceOnUse"><stop stop-color="#fff"/><stop offset="1" stop-color="#fff" stop-opacity="0"/></linearGradient><linearGradient id="paint3_linear" x1="453.954" y1="346.951" x2="462.888" y2="329.508" gradientUnits="userSpaceOnUse"><stop stop-color="#E6E5E5"/><stop offset="1" stop-color="#E6E5E5" stop-opacity="0"/></linearGradient><linearGradient id="paint4_linear" x1="348.893" y1="207" x2="348.893" y2="251.432" gradientUnits="userSpaceOnUse"><stop stop-color="#fff"/><stop offset="1" stop-color="#F2F2F2"/></linearGradient><linearGradient id="paint5_linear" x1="391.944" y1="478.459" x2="391.944" y2="533.076" gradientUnits="userSpaceOnUse"><stop stop-color="#fff"/><stop offset="1" stop-color="#F2F2F2"/></linearGradient><linearGradient id="paint6_linear" x1="268.18" y1="-49.927" x2="250.676" y2="163.014" gradientUnits="userSpaceOnUse"><stop stop-color="#3A3A3A"/><stop offset="1" stop-color="#19191A"/></linearGradient><linearGradient id="paint7_linear" x1="57.253" y1="-60.525" x2="41.963" y2="138.575" gradientUnits="userSpaceOnUse"><stop stop-color="#0E0E0E"/><stop offset="1" stop-color="#19191A"/></linearGradient><linearGradient id="paint8_linear" x1="317.354" x2="317.354" y2="27.014" gradientUnits="userSpaceOnUse"><stop stop-color="#FF7272"/><stop offset="1" stop-color="#FF7272" stop-opacity="0"/></linearGradient><linearGradient id="paint9_linear" x1="495.755" y1="303.108" x2="466.23" y2="257.18" gradientUnits="userSpaceOnUse"><stop stop-color="#FA8C8C" stop-opacity=".63"/><stop offset="1" stop-color="#FFB8B8"/></linearGradient><linearGradient id="paint10_linear" x1="482.961" y1="255.527" x2="482.961" y2="306.048" gradientUnits="userSpaceOnUse"><stop stop-color="#FF6948"/><stop offset="1" stop-color="#EC1616"/></linearGradient><linearGradient id="paint11_linear" x1="462.891" y1="238.713" x2="490.157" y2="300.184" gradientUnits="userSpaceOnUse"><stop stop-color="#fff" stop-opacity=".4"/><stop offset="1" stop-color="#fff" stop-opacity="0"/></linearGradient><clipPath id="clip0"><path fill="#fff" transform="translate(461.886 256.141)" d="M0 0h42.443v63.365H0z"/></clipPath></defs></svg>